<?xml version="1.0" standalone="no"?>
<!DOCTYPE svg PUBLIC "-//W3C//DTD SVG 20010904//EN"
 "http://www.w3.org/TR/2001/REC-SVG-20010904/DTD/svg10.dtd">
<svg version="1.0" xmlns="http://www.w3.org/2000/svg"
 width="512.000000pt" height="512.000000pt" viewBox="0 0 512.000000 512.000000"
 preserveAspectRatio="xMidYMid meet">
<metadata>
Created by potrace 1.14, written by Peter Selinger 2001-2017
</metadata>
<g transform="translate(0.000000,512.000000) scale(0.100000,-0.100000)"
fill="#000000" stroke="none">
<path d="M732 4600 c3 -514 3 -520 -17 -521 -21 -1 -41 -4 -120 -19 -27 -5
-66 -11 -85 -14 -114 -15 -131 -19 -138 -35 -5 -9 -8 -847 -7 -1863 l1 -1848
-183 0 -183 0 0 -150 0 -150 2560 0 2560 0 0 150 0 150 -180 0 c-137 0 -180 3
-181 13 0 6 -2 761 -2 1677 l-2 1665 -1095 0 -1095 1 -3 367 c-1 202 -3 367
-5 367 -1 0 -81 -14 -177 -30 -96 -16 -177 -25 -180 -21 -3 5 -5 183 -4 395
l1 386 -734 0 -733 0 2 -520z"/>
</g>
</svg>
